<?xml version="1.0" encoding="utf-8"?>
<!-- Generator: Adobe Illustrator 22.1.0, SVG Export Plug-In . SVG Version: 6.00 Build 0)  -->
<svg version="1.1" id="Layer_1" xmlns="http://www.w3.org/2000/svg" xmlns:xlink="http://www.w3.org/1999/xlink" x="0px" y="0px"
	 viewBox="0 0 500 500" style="enable-background:new 0 0 500 500;" xml:space="preserve">
<style type="text/css">
	.st0{fill:none;}
	.st1{fill-rule:evenodd;clip-rule:evenodd;fill:#05755F;}
	.st2{fill-rule:evenodd;clip-rule:evenodd;fill:#D2D2D2;}
	.st3{fill-rule:evenodd;clip-rule:evenodd;fill:#E9E9E9;}
	.st4{fill-rule:evenodd;clip-rule:evenodd;fill:#333333;}
	.st5{fill-rule:evenodd;clip-rule:evenodd;fill:#292929;}
	.st6{fill-rule:evenodd;clip-rule:evenodd;fill:#010000;}
	.st7{fill-rule:evenodd;clip-rule:evenodd;fill:#323232;}
	.st8{fill-rule:evenodd;clip-rule:evenodd;fill:#F78729;}
	.st9{fill-rule:evenodd;clip-rule:evenodd;fill:#E17C28;}
	.st10{fill-rule:evenodd;clip-rule:evenodd;fill:#B85E34;}
	.st11{fill-rule:evenodd;clip-rule:evenodd;fill:#954D2A;}
	.st12{fill-rule:evenodd;clip-rule:evenodd;fill:#7E4B1E;}
	.st13{fill-rule:evenodd;clip-rule:evenodd;fill:#E6E6E6;}
	.st14{fill-rule:evenodd;clip-rule:evenodd;fill:#45B431;}
	.st15{fill-rule:evenodd;clip-rule:evenodd;fill:#58BC46;}
	.st16{fill-rule:evenodd;clip-rule:evenodd;fill:#9C6127;}
	.st17{fill:#DB9D2C;}
	.st18{fill-rule:evenodd;clip-rule:evenodd;fill:#71441B;}
	.st19{fill-rule:evenodd;clip-rule:evenodd;fill:#8B5D35;}
	.st20{fill-rule:evenodd;clip-rule:evenodd;fill:#032D59;}
	.st21{fill-rule:evenodd;clip-rule:evenodd;fill:#335579;}
	.st22{fill-rule:evenodd;clip-rule:evenodd;fill:#CCCCCC;}
	.st23{fill-rule:evenodd;clip-rule:evenodd;fill:#7D7091;}
	.st24{fill-rule:evenodd;clip-rule:evenodd;fill:#9A8AB3;}
	.st25{fill-rule:evenodd;clip-rule:evenodd;fill:#B3B3B3;}
	.st26{fill-rule:evenodd;clip-rule:evenodd;fill:#C86E21;}
	.st27{fill:#999999;}
	.st28{fill:#808080;}
</style>
<rect x="0" y="0.5" class="st0" width="500" height="500"/>
<g id="Education_2_">
	<g id="Computer">
		<path class="st1" d="M147.1,203h232.6c7,0,12.8,5.8,12.8,12.8v152.8c0,7-5.8,12.8-12.8,12.8H147.1c-7,0-12.8-5.8-12.8-12.8V215.8
			C134.3,208.8,140.1,203,147.1,203L147.1,203z"/>
		<path class="st1" d="M232.9,389.8h60.9c2,0,3.7,1.7,3.7,3.7l0,0c0,2-1.7,3.6-3.7,3.6h-60.9c-2,0-3.7-1.6-3.7-3.6l0,0
			C229.3,391.5,230.9,389.8,232.9,389.8L232.9,389.8z"/>
		<path class="st1" d="M263.4,379.1L263.4,379.1c2.4,0,4.3,1.9,4.3,4.3v5.9c0,2.4-1.9,4.3-4.3,4.3l0,0c-2.4,0-4.4-1.9-4.4-4.3v-5.9
			C259.1,381,261,379.1,263.4,379.1L263.4,379.1z"/>
		<path class="st2" d="M150.7,211.8h225.3c4.2,0,7.6,3.4,7.6,7.5v145.8c0,4.1-3.4,7.6-7.6,7.6H150.7c-4.1,0-7.6-3.4-7.6-7.6V219.3
			C143.2,215.2,146.6,211.8,150.7,211.8L150.7,211.8z"/>
		<path class="st3" d="M269.7,211.8h106.3c4.2,0,7.6,3.4,7.6,7.5v145.8c0,4.1-3.4,7.6-7.6,7.6H269.7c-3.5,0-6.3-2.9-6.3-6.3V218.1
			C263.4,214.6,266.3,211.8,269.7,211.8L269.7,211.8z"/>
	</g>
	<g id="Graduation_Hat">
		<path class="st4" d="M205.2,140l58.2,6.9l58.2-6.9c8.4-1,15.2,5,15.2,13.4v43.5c0,8.4-7,15.2-15.2,17l-58.2,13l-58.2-13
			c-8.2-1.8-15.2-8.6-15.2-17v-43.5C189.9,145,196.8,139,205.2,140L205.2,140z"/>
		<path class="st5" d="M263.4,146.9l58.2-6.9c8.4-1,15.2,5,15.2,13.4v43.5c0,8.4-7,15.2-15.2,17l-58.2,13V146.9z"/>
		<polygon class="st6" points="363.7,133.3 380.9,132 380.9,139.8 263.4,184.3 145.9,139.8 145.9,132 159.5,134.6 		"/>
		<polygon class="st7" points="263.4,87.4 380.9,132 263.4,176.5 145.9,132 		"/>
		<path class="st8" d="M380.9,128.5h-6.4H265.4c-2.6,0-7,0-7,4.1c0,4.3,4.8,4.1,7.5,4.1h108.6v54.6h6.4v-54.6V128.5z"/>
		<polygon class="st8" points="373,193.3 377.7,194.4 382.4,193.3 390.3,228.4 384.8,223.4 381.9,230.3 377.7,211.7 373.5,230.3 
			370.6,223.4 365.1,228.4 		"/>
		<path class="st9" d="M377.7,202.4c4.7,0,8.6-3.9,8.6-8.6c0-4.7-3.9-8.6-8.6-8.6c-4.7,0-8.6,3.9-8.6,8.6
			C369.1,198.6,373,202.4,377.7,202.4L377.7,202.4z"/>
	</g>
	<g id="Table">
		<path class="st10" d="M64.3,415.5h363.3c5.3,0,9.6-4.3,9.6-9.6l0,0c0-5.3-4.3-9.6-9.6-9.6H64.3c-5.3,0-9.6,4.3-9.6,9.6l0,0
			C54.7,411.2,59,415.5,64.3,415.5L64.3,415.5z"/>
		<path class="st11" d="M437.3,405.9c0-5.3-5-9.6-11.1-9.6H65.8c-6.1,0-11.1,4.3-11.1,9.6H437.3z"/>
	</g>
	<g id="Wallet">
		<path class="st12" d="M337,337.3h71.1c1.7,0,3.1,1.4,3.1,3.1v42.4c0,1.7-1.4,3.1-3.1,3.1H337c-1.7,0-3.1-1.4-3.1-3.1v-42.4
			C333.9,338.7,335.3,337.3,337,337.3L337,337.3z"/>
		<path class="st13" d="M340.7,341.1h64.8c1.1,0,1.9,0.9,1.9,1.9l0,0c0,1.1-0.9,1.9-1.9,1.9h-64.8c-1.1,0-1.9-0.9-1.9-1.9l0,0
			C338.8,342,339.7,341.1,340.7,341.1L340.7,341.1z"/>
		
			<rect x="328.8" y="320.3" transform="matrix(0.1737 -0.9848 0.9848 0.1737 -34.1851 626.7777)" class="st14" width="55.3" height="27"/>
		
			<rect x="322.2" y="325.8" transform="matrix(0.1737 -0.9848 0.9848 0.1737 -38.4917 619.318)" class="st15" width="55.3" height="13.6"/>
		
			<rect x="354.4" y="334.5" transform="matrix(0.4263 -0.9046 0.9046 0.4263 -95.5964 545.1863)" class="st14" width="55.3" height="27"/>
		<polygon class="st15" points="381.6,317.2 358,367.2 370.3,373 393.9,323 		"/>
		<path class="st16" d="M332.5,344.9h78.1c2,0,3.7,1.7,3.7,3.7v44.1c0,2-1.7,3.7-3.7,3.7h-78.1c-2,0-3.7-1.7-3.7-3.7v-44.1
			C328.8,346.6,330.5,344.9,332.5,344.9L332.5,344.9z"/>
		<path class="st17" d="M338,354c-0.6,0-1.1-0.5-1.1-1.2c0-0.6,0.5-1.1,1.1-1.1h2.3c0.6,0,1.1,0.5,1.1,1.1c0,0.6-0.5,1.2-1.1,1.2
			H338z M405.5,351.6c0.6,0,1.1,0.5,1.1,1.1c0,0.6-0.5,1.2-1.1,1.2h-2.3c-0.7,0-1.2-0.5-1.2-1.2c0-0.6,0.5-1.1,1.2-1.1H405.5z
			 M396.2,351.6c0.6,0,1.1,0.5,1.1,1.1c0,0.6-0.5,1.2-1.1,1.2h-2.3c-0.6,0-1.2-0.5-1.2-1.2c0-0.6,0.5-1.1,1.2-1.1H396.2z
			 M386.8,351.6c0.6,0,1.2,0.5,1.2,1.1c0,0.6-0.5,1.2-1.2,1.2h-2.3c-0.6,0-1.1-0.5-1.1-1.2c0-0.6,0.5-1.1,1.1-1.1H386.8z
			 M377.6,351.6c0.6,0,1.1,0.5,1.1,1.1c0,0.6-0.5,1.2-1.1,1.2h-2.3c-0.7,0-1.2-0.5-1.2-1.2c0-0.6,0.5-1.1,1.2-1.1H377.6z
			 M368.3,351.6c0.6,0,1.1,0.5,1.1,1.1c0,0.6-0.5,1.2-1.1,1.2h-2.3c-0.6,0-1.2-0.5-1.2-1.2c0-0.6,0.5-1.1,1.2-1.1H368.3z M359,351.6
			c0.6,0,1.2,0.5,1.2,1.1c0,0.6-0.5,1.2-1.2,1.2h-2.3c-0.6,0-1.1-0.5-1.1-1.2c0-0.6,0.5-1.1,1.1-1.1H359z M349.7,351.6
			c0.6,0,1.1,0.5,1.1,1.1c0,0.6-0.5,1.2-1.1,1.2h-2.3c-0.7,0-1.2-0.5-1.2-1.2c0-0.6,0.5-1.1,1.2-1.1H349.7z"/>
		<path class="st18" d="M337.1,363.6h67.5c6.1,0,11.1,5,11.1,11.2l0,0c0,6.1-5,11.1-11.1,11.1h-67.5c-6.1,0-11.1-5-11.1-11.1l0,0
			C325.9,368.6,330.9,363.6,337.1,363.6L337.1,363.6z"/>
		<path class="st17" d="M347.7,390.5c-0.5,0-0.9-0.4-0.9-0.9c0-0.5,0.4-0.9,0.9-0.9h1.8c0.5,0,0.9,0.4,0.9,0.9
			c0,0.5-0.4,0.9-0.9,0.9H347.7z M398.4,388.7c0.5,0,0.9,0.4,0.9,0.9c0,0.5-0.4,0.9-0.9,0.9h-1.8c-0.5,0-0.9-0.4-0.9-0.9
			c0-0.5,0.4-0.9,0.9-0.9H398.4z M391.4,388.7c0.5,0,0.9,0.4,0.9,0.9c0,0.5-0.4,0.9-0.9,0.9h-1.7c-0.5,0-0.9-0.4-0.9-0.9
			c0-0.5,0.4-0.9,0.9-0.9H391.4z M384.4,388.7c0.5,0,0.9,0.4,0.9,0.9c0,0.5-0.4,0.9-0.9,0.9h-1.8c-0.5,0-0.9-0.4-0.9-0.9
			c0-0.5,0.4-0.9,0.9-0.9H384.4z M377.4,388.7c0.5,0,0.9,0.4,0.9,0.9c0,0.5-0.4,0.9-0.9,0.9h-1.8c-0.5,0-0.9-0.4-0.9-0.9
			c0-0.5,0.4-0.9,0.9-0.9H377.4z M370.4,388.7c0.5,0,0.9,0.4,0.9,0.9c0,0.5-0.4,0.9-0.9,0.9h-1.8c-0.5,0-0.9-0.4-0.9-0.9
			c0-0.5,0.4-0.9,0.9-0.9H370.4z M363.5,388.7c0.5,0,0.9,0.4,0.9,0.9c0,0.5-0.4,0.9-0.9,0.9h-1.8c-0.5,0-0.9-0.4-0.9-0.9
			c0-0.5,0.4-0.9,0.9-0.9H363.5z M356.4,388.7c0.5,0,0.9,0.4,0.9,0.9c0,0.5-0.4,0.9-0.9,0.9h-1.8c-0.5,0-0.9-0.4-0.9-0.9
			c0-0.5,0.4-0.9,0.9-0.9H356.4z"/>
		<path class="st19" d="M358.9,368.2h54c1.5,0,2.8,1.2,2.8,2.8v7.6c0,1.5-1.2,2.8-2.8,2.8h-54c-1.5,0-2.7-1.2-2.7-2.8v-7.6
			C356.2,369.4,357.4,368.2,358.9,368.2L358.9,368.2z"/>
		<path class="st18" d="M363,377.6c1.6,0,2.9-1.3,2.9-2.9c0-1.6-1.3-2.9-2.9-2.9c-1.6,0-2.9,1.3-2.9,2.9
			C360.1,376.3,361.4,377.6,363,377.6L363,377.6z"/>
	</g>
	<g id="Books">
		<path class="st20" d="M86.8,343.5h128v5.8c-3.6,2-6.1,5.5-6.1,9.6v22.6c0,4,2.4,7.6,6.1,9.6v5.8h-128c-7.3,0-13.3-6-13.3-13.3
			v-26.6C73.5,349.5,79.5,343.5,86.8,343.5L86.8,343.5z"/>
		<path class="st21" d="M86.8,343.5h128v5.8c-3.6,2-6.1,5.5-6.1,9.6v11.3H73.5v-13.3C73.5,349.5,79.5,343.5,86.8,343.5L86.8,343.5z"
			/>
		<path class="st22" d="M214.8,349.5c-3.4,2-5.7,5.5-5.7,9.3v22.6c0,3.9,2.3,7.3,5.7,9.3H105c-5.6,0-10.2-4.6-10.2-10.2v-20.8
			c0-5.6,4.6-10.2,10.2-10.2H214.8z"/>
		<path class="st23" d="M91.4,343.5h116v-4.4c-2.7-1.5-4.6-4.2-4.6-7.2v-8.5c0-3,1.8-5.7,4.6-7.2v-4.4h-116c-5.5,0-10,4.5-10,10
			v11.6C81.4,339,85.9,343.5,91.4,343.5L91.4,343.5z"/>
		<path class="st24" d="M202.9,327.7v-4.2c0-3,1.8-5.7,4.6-7.2v-4.4h-116c-5.5,0-10,4.5-10,10v5.8H202.9z"/>
		<path class="st3" d="M207.4,339c-2.5-1.5-4.3-4.1-4.3-7v-8.5c0-2.9,1.7-5.5,4.3-7H100c-4.2,0-7.7,3.4-7.7,7.7v7.2
			c0,4.2,3.5,7.7,7.7,7.7H207.4z"/>
		<path class="st25" d="M203.6,334.5c-0.1-0.4-0.3-0.7-0.3-1.1H102.9v1.1H203.6z M203.1,330.3v-1.1H102.9v1.1H203.1z M203.1,326.1
			V325H102.9v1.1H203.1z M203.3,322c0.1-0.4,0.2-0.8,0.3-1.1H102.9v1.1H203.3z"/>
		<path class="st26" d="M189.7,285.6h-116v4.4c2.7,1.5,4.6,4.2,4.6,7.2v3.1c0,3-1.8,5.7-4.6,7.2v4.4h116c5.5,0,10-4.5,10-10v-6.2
			C199.7,290.2,195.2,285.6,189.7,285.6L189.7,285.6z"/>
		<path class="st8" d="M189.7,285.6h-116v4.4c2.7,1.5,4.6,4.2,4.6,7.2v1.6h121.5v-3.1C199.7,290.2,195.2,285.6,189.7,285.6
			L189.7,285.6z"/>
		<path class="st3" d="M73.7,290.2c2.6,1.5,4.3,4.1,4.3,7v3.1c0,2.9-1.7,5.5-4.3,7h107.4c4.2,0,7.7-3.5,7.7-7.7v-1.8
			c0-4.2-3.4-7.7-7.7-7.7H73.7z"/>
		<path class="st25" d="M77.1,293.7c0.2,0.4,0.4,0.8,0.5,1.1h101.7v-1.1H77.1z M77.9,297.9v1.1h101.3v-1.1H77.9z M77.7,302.1
			c-0.1,0.4-0.2,0.8-0.4,1.1h101.9v-1.1H77.7z"/>
		<path class="st27" d="M209,358.8H108.8v-2.3H209V358.8z M209,375.5H108.8v-2.3H209V375.5z M209,383.8H108.8v-2.3H209V383.8z
			 M209,367.1H108.8v-2.2H209V367.1z"/>
		<polygon class="st20" points="113.5,366.8 130.1,366.8 130.1,384.7 121.8,375.7 113.5,384.7 		"/>
	</g>
	<g id="Words">
		<path class="st28" d="M167.8,251.5c-1,0-1.7-0.8-1.7-1.7c0-0.9,0.7-1.7,1.7-1.7h122.1c0.9,0,1.7,0.8,1.7,1.7
			c0,0.9-0.8,1.7-1.7,1.7H167.8z"/>
		<path class="st28" d="M216.3,270.5c-1,0-1.7-0.8-1.7-1.7c0-0.9,0.7-1.7,1.7-1.7h93.1c0.9,0,1.7,0.8,1.7,1.7c0,0.9-0.8,1.7-1.7,1.7
			H216.3z"/>
		<path class="st28" d="M217.7,291c-0.9,0-1.7-0.7-1.7-1.7c0-0.9,0.8-1.7,1.7-1.7h76.9c0.9,0,1.7,0.8,1.7,1.7c0,1-0.8,1.7-1.7,1.7
			H217.7z"/>
		<path class="st28" d="M227.1,312.6c-0.9,0-1.7-0.8-1.7-1.7c0-1,0.8-1.7,1.7-1.7h73.5c1,0,1.7,0.7,1.7,1.7c0,0.9-0.7,1.7-1.7,1.7
			H227.1z"/>
	</g>
	<path id="A_Grade" class="st14" d="M349.3,269.9h-15.1l7.6-19.5L349.3,269.9z M350.7,273.9l4.6,11.7c0.3,0.9,1,1.5,2.1,1.5
		c1.3,0,2.2-1,2.2-2.2c0-0.2-0.1-0.6-0.2-1l-15.6-39.4c-0.3-0.8-1-1.5-2.1-1.5c-1.1,0-1.7,0.7-2,1.5L324.1,284
		c-0.1,0.3-0.2,0.7-0.2,1c0,1.2,1,2.2,2.2,2.2c1.1,0,1.8-0.7,2.1-1.6l4.7-11.7H350.7z"/>
</g>
</svg>
